<svg width="131" height="21" fill="none" xmlns="http://www.w3.org/2000/svg"><path d="M54.86.787h2.86V4.37a3.42 3.42 0 0 1 1.144-.79 3.579 3.579 0 0 1 1.383-.262c.975 0 1.758.312 2.35.935.591.624.886 1.45.886 2.48 0 .937-.291 1.687-.875 2.253-.583.564-1.357.847-2.325.847a3.5 3.5 0 0 1-1.45-.292 3.037 3.037 0 0 1-1.112-.86c0 .206-.007.392-.024.561a2.355 2.355 0 0 1-.079.44h-2.86c.032-.117.056-.263.075-.437.018-.175.027-.374.027-.6V.788Zm5.732 5.821c0-.547-.129-.977-.386-1.293-.256-.316-.605-.474-1.046-.474-.474 0-.836.152-1.086.456-.25.303-.377.744-.377 1.323 0 .547.127.972.38 1.276.252.302.605.454 1.059.454.445 0 .8-.156 1.062-.47.263-.314.394-.737.394-1.272Zm9.418 2.08a2.431 2.431 0 0 1-1.06.796c-.434.172-.959.26-1.577.26-.88 0-1.556-.158-2.03-.47-.473-.314-.71-.758-.71-1.333 0-.783.408-1.349 1.225-1.697.817-.347 2.184-.529 4.104-.545 0-.012.002-.035.006-.07a.652.652 0 0 0 .006-.074c0-.317-.096-.554-.286-.71-.19-.156-.476-.235-.858-.235-.344 0-.61.058-.794.172a.703.703 0 0 0-.33.514h-2.64c.012-.687.337-1.199.976-1.534.638-.336 1.611-.503 2.92-.503 1.258 0 2.194.195 2.809.587.612.391.92.988.92 1.787v3.158c0 .196.01.354.028.474.018.12.049.232.093.337h-2.65a2.506 2.506 0 0 1-.116-.447 2.973 2.973 0 0 1-.036-.467Zm-.06-1.769c-.926 0-1.556.06-1.892.18-.336.121-.504.332-.504.633 0 .204.082.364.244.478.164.114.394.172.692.172.487 0 .852-.114 1.094-.34.244-.227.366-.569.366-1.026v-.097ZM73.993.787h2.862V4.37c.34-.35.721-.614 1.142-.79a3.591 3.591 0 0 1 1.384-.262c.974 0 1.757.312 2.35.935.59.624.886 1.45.886 2.48 0 .937-.292 1.687-.876 2.253-.583.564-1.357.847-2.324.847a3.49 3.49 0 0 1-1.45-.292 3.03 3.03 0 0 1-1.112-.86c0 .206-.008.392-.025.561a2.33 2.33 0 0 1-.078.44h-2.86c.03-.117.057-.263.074-.437a5.66 5.66 0 0 0 .028-.6V.788Zm5.733 5.821c0-.547-.13-.977-.386-1.293-.257-.316-.606-.474-1.047-.474-.473 0-.835.152-1.086.456-.25.303-.377.744-.377 1.323 0 .547.127.972.38 1.276.253.302.606.454 1.06.454.445 0 .798-.156 1.061-.47.263-.314.394-.737.394-1.272Zm9.417 2.08a2.432 2.432 0 0 1-1.059.796c-.434.172-.959.26-1.577.26-.88 0-1.557-.158-2.03-.47-.473-.314-.71-.758-.71-1.333 0-.783.408-1.349 1.224-1.697.818-.347 2.186-.529 4.105-.545a.81.81 0 0 1 .006-.07.86.86 0 0 0 .005-.074c0-.317-.095-.554-.285-.71-.19-.156-.477-.235-.857-.235-.346 0-.61.058-.795.172a.705.705 0 0 0-.33.514H84.2c.012-.687.337-1.199.975-1.534.639-.336 1.613-.503 2.922-.503 1.257 0 2.192.195 2.808.587.614.391.92.988.92 1.787v3.158c0 .196.01.354.028.474.018.12.05.232.093.337h-2.65a2.533 2.533 0 0 1-.116-.447 3.047 3.047 0 0 1-.037-.467Zm-.06-1.769c-.925 0-1.555.06-1.892.18-.335.121-.503.332-.503.633 0 .204.082.364.244.478.164.114.393.172.692.172.486 0 .851-.114 1.095-.34.243-.227.364-.569.364-1.026v-.097Zm11.451-.606V5.275h3.738v3.271a6.637 6.637 0 0 1-1.776 1.032 5.28 5.28 0 0 1-1.878.345c-.866 0-1.654-.185-2.362-.557a3.687 3.687 0 0 1-1.604-1.612c-.361-.704-.54-1.489-.54-2.357 0-.859.178-1.662.538-2.407.358-.746.875-1.3 1.55-1.66.673-.362 1.45-.543 2.327-.543.639 0 1.216.104 1.73.31.516.208.921.497 1.214.867.293.37.515.852.667 1.448l-1.057.288c-.133-.45-.297-.804-.493-1.062-.196-.259-.476-.465-.842-.62a3.05 3.05 0 0 0-1.212-.233c-.533 0-.993.081-1.382.245a2.575 2.575 0 0 0-.94.644 3.06 3.06 0 0 0-.556.875 4.661 4.661 0 0 0-.336 1.783c0 .79.135 1.45.406 1.982.27.532.662.926 1.18 1.184a3.628 3.628 0 0 0 1.645.387 3.89 3.89 0 0 0 1.479-.294c.479-.195.845-.405 1.093-.626V6.313h-2.589Zm5.453 3.49V3.399h.977v.972c.251-.453.481-.751.693-.896.211-.144.444-.216.698-.216.366 0 .739.115 1.118.345l-.379 1.006a1.563 1.563 0 0 0-.795-.232c-.237 0-.449.07-.639.213a1.174 1.174 0 0 0-.404.594c-.12.386-.181.808-.181 1.266v3.352h-1.088ZM109.69 6.6c0-1.184.33-2.062.989-2.632.549-.474 1.22-.71 2.011-.71.88 0 1.599.287 2.158.863.557.576.836 1.373.836 2.389 0 .823-.123 1.471-.37 1.942a2.62 2.62 0 0 1-1.079 1.1c-.471.26-.987.391-1.545.391-.896 0-1.619-.287-2.171-.861-.554-.575-.829-1.401-.829-2.482Zm1.118.002c0 .82.179 1.433.535 1.842.357.408.806.612 1.347.612.537 0 .985-.206 1.34-.615.357-.41.535-1.035.535-1.875 0-.792-.178-1.391-.537-1.8a1.713 1.713 0 0 0-1.338-.612c-.541 0-.99.204-1.347.61-.356.405-.535 1.018-.535 1.838Zm10.5 3.059v-.947c-.498.725-1.173 1.089-2.027 1.089-.379 0-.73-.073-1.057-.218-.327-.144-.57-.326-.728-.545a2.066 2.066 0 0 1-.334-.804c-.044-.213-.066-.55-.066-1.013V3.258h1.089v3.548c0 .566.021.947.066 1.144.067.285.212.509.432.672.22.162.494.244.818.244.325 0 .629-.084.915-.251.284-.166.485-.393.603-.68.118-.287.178-.703.178-1.25V3.257h1.087v6.404h-.976Zm3.195 2.591V3.4h.986v.833c.233-.325.497-.569.79-.73.293-.163.649-.243 1.065-.243.546 0 1.028.139 1.445.42.418.282.733.678.945 1.19a4.34 4.34 0 0 1 .32 1.683c0 .655-.118 1.244-.353 1.769a2.656 2.656 0 0 1-1.022 1.204c-.447.28-.917.42-1.409.42a2.06 2.06 0 0 1-.973-.228 2.201 2.201 0 0 1-.706-.577v3.113h-1.088Zm.977-5.615c0 .824.166 1.433.499 1.827.333.395.734.592 1.208.592.48 0 .891-.204 1.234-.613.344-.407.514-1.04.514-1.896 0-.816-.167-1.428-.502-1.834-.334-.405-.734-.61-1.198-.61-.462 0-.869.218-1.223.65-.354.432-.532 1.06-.532 1.884Z" fill="#F60"/><path d="M4.704 17.474c-.159-.019-.407-.16-.583-.301-1.675-1.643.476-3.532 2.965-4.627V9.421c.581.371.9.388.916.441l1.905-1.889-.635-1.625c5.575-1.925 7.815-2.666 12.348-3.425l-.813-.76 1.325-.759c3.05 1.008 5.927 1.272 5.432 3.832.124-1.73-2.028-2.402-5.309-3.32l-.635.388 1.217 1.007c-5.432.936-8.767 1.996-12.736 3.373l.547 1.413-1.993 1.96c.336.088 3.81 1.253 7.426-1.272 0 0 .071-.053.071-.07-.105-.177-.353-.372-.652-.636 1.058.07 1.745 1.006 1.622 1.978h-.494a1.773 1.773 0 0 0-.14-.883c-2.805 2.048-6.051 2.349-8.82 1.377v2.42c-1.341.476-3.741 1.958-3.723 3.39.088.688.441.935.76 1.113Z" fill="#000"/><path d="M16.16 16.663c-3 1.519-5.874 2.737-10.302 2.914C.09 19.453-.81 15.62 1.924 11.613c2.576-4.044 6.668-7.7 13.177-9.978C16.988.965 19.758.205 22.44.17c3.846-.035 7.586 1.166 7.338 4.857-.141 2.825-4.215 6.815-6.368 9.676-.918 1.253-1.076 2.066.493 1.996 5.699-.372 10.867-2.349 15.665-4.398-3.245 2.208-20.022 10.524-20.091 4.857.017-.725.352-1.484.899-2.296.53-.813 1.27-1.66 2.029-2.525 1.146-1.307 3.986-4.432 4.938-6.305 1.605-3.549-1.993-3.725-5.098-4.82l-1.323.758.812.76C17.2 3.49 14.96 4.232 9.385 6.157l.636 1.625-1.906 1.89c-.052-.054-.335-.07-.917-.442v3.125c-2.488 1.095-4.64 2.984-2.964 4.626.177.142.425.283.583.301 3.051 1.73 11.36-.618 11.343-.618Zm17.944 2.033h.395a.696.696 0 0 0 .195-.023.216.216 0 0 0 .108-.084.238.238 0 0 0 .038-.124.211.211 0 0 0-.072-.162c-.047-.042-.121-.063-.223-.063h-.441v.456Zm-.186.787v-1.4h.618c.123 0 .22.014.282.036a.31.31 0 0 1 .153.136c.04.063.06.132.06.21a.364.364 0 0 1-.095.252.514.514 0 0 1-.297.13.4.4 0 0 1 .112.069c.051.051.104.111.15.186l.244.381h-.232l-.182-.288c-.054-.088-.101-.15-.134-.196a.445.445 0 0 0-.094-.094.3.3 0 0 0-.083-.038 1.05 1.05 0 0 0-.103-.005h-.213v.621h-.186Z" fill="#F60"/><path d="M34.48 20.13a1.331 1.331 0 0 0 0-2.66 1.33 1.33 0 0 0 0 2.66Zm-1.122-1.33a1.123 1.123 0 1 1 2.245 0 1.123 1.123 0 0 1-2.245 0Zm12.756-6.274v7.539c.523 0 1.108-.475 1.108-.999v-.395h.627c.42-.022.903-.61.903-.905V16.09c0-.316-.356-.544-.525-.67.169-.148.525-.399.525-.715v-2.178h-2.638Zm1.55 2.494c0 .125-.104.336-.23.462-.02.022-.084.084-.084.084-.01.009-.02.021-.042.021h.356v2.18h-.44v-4.319h.44v1.572Zm4.187 2.39v-3.376h-2.66v4.613h1.32c.21-.02.462-.105.67-.252.127-.084.232-.167.336-.273.188-.21.334-.46.334-.713Zm-1.611-2.495h.564v2.871h-.564v-2.87Zm-1.321-2.389v.922h3.189v6.617c.356 0 1.127-.344 1.127-1.061v-5.556c.23 0 .419-.67.419-.922h-4.735Zm9.539 6.67v-.705h2.236c.323 0 .615-.552.788-.85h-3.024v-.597h1.681c.478 0 1.256-.663 1.278-1.003v-3.515h-7.195v4.518h2.894v.596h-2.894v.851h2.894v.705h-2.978v.873h6.747c.277 0 .532-.553.745-.873h-3.172Zm0-3.985h.575c.084 0 .17-.022.255-.087.106-.063.617-.703.681-.768h-1.511v-.979h1.639v2.814h-1.639v-.98Zm-2.938 0h1.596v.98H55.52v-.98Zm0-1.834h1.596v.98H55.52v-.98Zm8 5.714v-2.124h4.6c.414 0 1.162-.689 1.181-1.033v-3.408h-7.14v6.49c0 .518.312 1.056.895 1.056h5.45c.41 0 .904-.656.99-.98H63.52Zm2.918-5.596h1.517v2.502h-1.517v-2.502Zm-2.908 0h1.594v2.502H63.53v-2.502Zm8.627 5.596v-2.124h4.6c.417 0 1.163-.689 1.185-1.033v-3.408h-7.14v6.49c0 .518.312 1.056.894 1.056h5.448c.412 0 .906-.656.993-.98h-5.98Zm2.92-5.596h1.519v2.502h-1.518v-2.502Zm-2.907 0h1.592v2.502H72.17v-2.502Zm10.52 4.21v-.236h.535v.203h3.243s-.08.438-.787.438h-2.422v1.173c0 .89-.57.996-.57.996v-2.136h-3.863v-.437h3.864Z" fill="#F60"/><path d="M80.063 18.705h.577s-.601.775-.782.979c-.181.2-.422.524-.77.524-.196 0-.26.004-.26.004l1.235-1.507Zm5.514 0H85s.602.775.782.979c.18.2.422.524.77.524.195 0 .26.004.26.004l-1.235-1.507Zm.071-5.436c.69 0 .822-.438.822-.438h-3.236l.236-.304h-.532l-.271.338h-2.175l.268-.338h-.555l-1.377 1.793h.59v2.452s.06.008.139 0c.855 0 .927-.112.927-.112h5.164c.687 0 .753-.41.753-.41H83.19v-.717h2.46c.676 0 .786-.435.786-.435H83.19v-.707h2.46c.676 0 .786-.443.786-.443H83.19v-.679h2.46Zm-5.731 2.297h2.74v.683h-2.74v-.683Zm0-1.107h2.74v.673h-2.74v-.673Zm2.74-.478h-2.74l-.003-.243.14-.2.184-.235h2.42v.678Zm5.429-1.454v7.615h6.401c.482 0 .665-.457.641-.93v-6.685h-7.042Zm6.524 6.629c0 .276-.06.491-.422.491h-5.624V12.97h6.046v6.187Z" fill="#F60"/><path d="m90.939 15.615-1.618 2.92s.543.103.79-.412l1.376-2.5-.548-.008Z" fill="#F60"/><path d="M92.96 17.992c0 .159-.056.237-.17.237h-.54v.43h.687c.424 0 .563-.155.541-.629 0 0-.004-2.846 0-2.846.533 0 .566-.446.566-.446l-.566.005v-.98h-.518v.98h-3.64v.474h3.64v2.775Z" fill="#F60"/></svg>