<svg width="169" height="113" fill="none" xmlns="http://www.w3.org/2000/svg"><path fill-rule="evenodd" clip-rule="evenodd" d="M100.334 67.252c-7.532 5.558-18.449 8.523-27.848 8.523-13.18 0-25.045-4.88-34.02-12.996-.706-.638-.074-1.508.772-1.01 9.687 5.642 21.665 9.036 34.038 9.036 8.344 0 17.524-1.728 25.964-5.315 1.275-.542 2.341.836 1.094 1.762Z" fill="#F90"/><path fill-rule="evenodd" clip-rule="evenodd" d="M103.468 63.665c-.96-1.231-6.365-.582-8.79-.294-.74.09-.852-.553-.187-1.016 4.305-3.033 11.369-2.158 12.192-1.141.824 1.022-.214 8.11-4.259 11.493-.621.52-1.213.243-.937-.446.909-2.27 2.945-7.359 1.981-8.596Z" fill="#F90"/><path fill-rule="evenodd" clip-rule="evenodd" d="M94.846 40.943v-2.948c0-.446.339-.745.745-.745h13.185c.423 0 .762.305.762.745v2.525c-.006.423-.361.977-.993 1.852l-6.833 9.765c2.539-.062 5.219.317 7.521 1.616.519.293.66.723.7 1.146v3.146c0 .43-.474.932-.971.672-4.056-2.129-9.444-2.36-13.93.023-.457.248-.936-.249-.936-.678v-2.988c0-.48.005-1.299.485-2.027l7.915-11.364h-6.888c-.423 0-.762-.299-.762-.74ZM46.749 59.338h-4.012a.758.758 0 0 1-.716-.683V38.046c0-.412.344-.74.773-.74h3.74c.39.017.7.316.728.69v2.693h.074c.976-2.603 2.81-3.818 5.28-3.818 2.51 0 4.08 1.215 5.208 3.818.97-2.603 3.176-3.818 5.54-3.818 1.681 0 3.52.695 4.643 2.254 1.27 1.734 1.01 4.253 1.01 6.461l-.005 13.007a.758.758 0 0 1-.773.746h-4.006c-.4-.029-.722-.35-.722-.746V47.67c0-.87.079-3.039-.113-3.863-.299-1.384-1.196-1.774-2.358-1.774-.97 0-1.986.65-2.398 1.69-.412 1.038-.372 2.778-.372 3.947v10.923a.758.758 0 0 1-.773.745H53.49a.759.759 0 0 1-.722-.745l-.006-10.923c0-2.299.378-5.682-2.471-5.682-2.883 0-2.77 3.298-2.77 5.682v10.923a.758.758 0 0 1-.773.745Zm74.14-22.467c5.952 0 9.174 5.117 9.174 11.624 0 6.286-3.56 11.273-9.174 11.273-5.845 0-9.027-5.117-9.027-11.494 0-6.416 3.222-11.403 9.027-11.403Zm.034 4.208c-2.956 0-3.143 4.032-3.143 6.546 0 2.519-.039 7.895 3.109 7.895 3.109 0 3.256-4.337 3.256-6.98 0-1.74-.074-3.818-.599-5.467-.451-1.435-1.348-1.994-2.623-1.994Zm16.858 18.26h-3.994c-.401-.029-.723-.35-.723-.746l-.005-20.615c.034-.378.367-.672.773-.672h3.718c.35.017.637.254.716.576v3.152h.074c1.122-2.819 2.696-4.163 5.467-4.163 1.799 0 3.554.65 4.682 2.429 1.05 1.649 1.05 4.422 1.05 6.416v12.973c-.045.361-.378.65-.773.65h-4.023c-.367-.029-.671-.3-.711-.65V47.495c0-2.254.26-5.552-2.51-5.552-.976 0-1.873.655-2.319 1.65-.564 1.259-.638 2.512-.638 3.902v11.098c-.005.412-.355.745-.784.745Zm-53.446-9.845c0 1.565.04 2.87-.75 4.259-.638 1.13-1.653 1.824-2.776 1.824-1.54 0-2.443-1.175-2.443-2.909 0-3.422 3.064-4.044 5.97-4.044v.87Zm4.045 9.788c-.265.237-.648.254-.947.096-1.332-1.107-1.575-1.62-2.302-2.677-2.2 2.248-3.763 2.92-6.613 2.92-3.38 0-6.003-2.084-6.003-6.258 0-3.259 1.76-5.478 4.277-6.563 2.178-.96 5.219-1.13 7.543-1.395v-.52c0-.954.074-2.084-.49-2.908-.486-.74-1.422-1.045-2.252-1.045-1.529 0-2.888.785-3.221 2.412-.068.361-.333.717-.7.734l-3.887-.418c-.327-.073-.694-.339-.598-.841.891-4.722 5.157-6.145 8.97-6.145 1.953 0 4.503.52 6.043 1.999 1.952 1.824 1.766 4.258 1.766 6.907v6.258c0 1.88.779 2.705 1.512 3.722.254.361.31.796-.017 1.067-.818.684-2.274 1.955-3.075 2.666l-.005-.011Zm-56.633-9.788c0 1.565.04 2.87-.75 4.259-.638 1.13-1.648 1.824-2.776 1.824-1.54 0-2.438-1.175-2.438-2.909 0-3.422 3.064-4.044 5.964-4.044v.87Zm4.045 9.788c-.265.237-.649.254-.948.096-1.331-1.107-1.568-1.62-2.302-2.677-2.2 2.248-3.757 2.92-6.612 2.92-3.374 0-6.003-2.084-6.003-6.258 0-3.259 1.766-5.478 4.277-6.563 2.177-.96 5.218-1.13 7.543-1.395v-.52c0-.954.073-2.084-.485-2.908-.491-.74-1.428-1.045-2.252-1.045-1.528 0-2.894.785-3.227 2.412-.067.361-.332.717-.694.734l-3.892-.418c-.328-.073-.689-.339-.599-.841.898-4.722 5.157-6.145 8.971-6.145 1.952 0 4.502.52 6.043 1.999 1.952 1.824 1.765 4.258 1.765 6.907v6.258c0 1.88.779 2.705 1.512 3.722.26.361.316.796-.01 1.067-.819.684-2.274 1.955-3.075 2.666l-.012-.011" fill="#000"/></svg>