<svg width="170" height="113" fill="none" xmlns="http://www.w3.org/2000/svg"><path d="m35.475 48.254-7.52 4.806 7.52 4.805-7.52 4.806-7.522-4.846 7.521-4.805-7.52-4.766 7.52-4.805 7.52 4.805Zm-7.56 15.938 7.52-4.805 7.52 4.805-7.52 4.806-7.52-4.806Zm7.56-6.367 7.52-4.805-7.52-4.766 7.48-4.805 7.521 4.805-7.52 4.806 7.52 4.805-7.52 4.806-7.481-4.846Z" fill="#0061FF"/><path d="M56.355 48.254h6.081c3.88 0 7.08 2.243 7.08 7.369v1.08c0 5.167-3 7.49-6.96 7.49h-6.2v-15.94Zm3.4 2.883V61.27h2.601c2.2 0 3.68-1.442 3.68-4.645v-.841c0-3.204-1.56-4.646-3.8-4.646h-2.48Zm11.562.16h2.72l.44 3.004c.52-2.042 1.84-3.123 4.24-3.123h.84v3.443h-1.4c-2.76 0-3.44.962-3.44 3.685v5.926h-3.36V51.298h-.04Zm8.92 6.728v-.36c0-4.325 2.76-6.688 6.521-6.688 3.84 0 6.52 2.363 6.52 6.688v.36c0 4.245-2.6 6.528-6.52 6.528-4.16-.04-6.52-2.283-6.52-6.528Zm9.602-.04v-.32c0-2.403-1.2-3.844-3.12-3.844-1.88 0-3.121 1.321-3.121 3.844v.32c0 2.323 1.2 3.644 3.12 3.644 1.92-.04 3.12-1.321 3.12-3.644Zm5.2-6.687h2.8l.32 2.442c.68-1.642 2.12-2.763 4.241-2.763 3.28 0 5.44 2.363 5.44 6.728v.36c0 4.245-2.4 6.488-5.44 6.488-2.041 0-3.44-.921-4.12-2.403v6.527h-3.281l.04-17.38Zm9.401 6.687v-.28c0-2.563-1.32-3.844-3.08-3.844-1.88 0-3.12 1.441-3.12 3.844v.24c0 2.283 1.2 3.724 3.08 3.724 1.92-.04 3.12-1.281 3.12-3.684Zm8.361 3.845-.28 2.362h-2.881v-17.22h3.281v6.608c.72-1.682 2.16-2.603 4.2-2.603 3.08.04 5.36 2.163 5.36 6.448v.4c0 4.285-2.16 6.728-5.44 6.728-2.16-.04-3.56-1.041-4.24-2.723Zm6.24-4.005v-.32c0-2.363-1.28-3.684-3.08-3.684-1.84 0-3.12 1.481-3.12 3.724v.28c0 2.403 1.24 3.804 3.08 3.804 1.96 0 3.12-1.241 3.12-3.804Zm4.881.2v-.36c0-4.325 2.76-6.688 6.52-6.688 3.841 0 6.521 2.363 6.521 6.688v.36c0 4.245-2.64 6.528-6.521 6.528-4.16-.04-6.52-2.283-6.52-6.528Zm9.64-.04v-.32c0-2.403-1.2-3.844-3.12-3.844-1.88 0-3.12 1.321-3.12 3.844v.32c0 2.323 1.2 3.644 3.12 3.644 1.92-.04 3.12-1.321 3.12-3.644Zm7.801-.48-4.52-6.207h3.88l2.6 3.884 2.641-3.884h3.84l-4.6 6.167 4.84 6.727h-3.8l-2.961-4.284-2.88 4.284h-3.96l4.92-6.687Z" fill="#000"/></svg>