<svg width="45" height="47" fill="none" xmlns="http://www.w3.org/2000/svg"><circle cx="22.387" cy="6.996" r="6.996" fill="#5CC5C7"/><path d="M12.593 23.32c0-5.409 4.385-9.794 9.795-9.794 5.409 0 9.794 4.385 9.794 9.794v6.996H12.593V23.32ZM8.958 37.945 6.875 33.58l-2.082 4.364L0 38.577l3.506 3.328-.88 4.754 4.25-2.306 4.249 2.306-.44-2.377-3.81-3.705 3.37 1.328 3.506-3.328-4.793-.632Zm15.391 0-2.082-4.364-2.082 4.364-4.794.632 3.507 3.328-.88 4.754 4.249-2.306 4.249 2.306-.44-2.377-3.81-3.705 3.37 1.328 3.506-3.328-4.793-.632Zm15.857 0-2.082-4.364-2.082 4.364-4.793.632 3.506 3.328-.88 4.754 4.25-2.306 4.249 2.306-.44-2.377-3.81-3.705 3.37 1.328L45 38.577l-4.794-.632Z" fill="#5CC5C7"/></svg>