<svg width="81" height="24" fill="none" xmlns="http://www.w3.org/2000/svg"><path d="M31.638 3.716C30.546 4.86 30 6.455 30 8.5v11.96h2.444V8.396c0-1.23.312-2.219.936-2.964.641-.763 1.517-1.144 2.626-1.144 1.144 0 2.02.338 2.626 1.014.624.659.936 1.508.936 2.548 0 1.057-.338 1.941-1.014 2.652-.659.693-1.569 1.04-2.73 1.04h-2.236v2.288h1.95c.815 0 1.595-.104 2.34-.312a7.462 7.462 0 0 0 2.106-.962c.659-.433 1.179-1.049 1.56-1.846.399-.797.598-1.733.598-2.808 0-1.716-.537-3.129-1.612-4.238C39.473 2.554 37.973 2 36.032 2c-1.82 0-3.285.572-4.394 1.716ZM44.622 7.98l-1.04 2.184h2.132V20.46h2.288V7.98h-3.38Zm.65-3.562c0 .347.113.667.338.962.225.277.572.416 1.04.416.468 0 .815-.139 1.04-.416a1.55 1.55 0 0 0 .338-.962c0-.347-.113-.659-.338-.936-.225-.295-.572-.442-1.04-.442-.468 0-.815.147-1.04.442-.225.277-.338.59-.338.936Zm8.961 6.032c.364-.19.798-.286 1.3-.286h4.602V7.98h-4.602c-1.16 0-2.149.286-2.964.858-.814.555-1.222 1.36-1.222 2.418 0 .832.234 1.534.702 2.106a4.37 4.37 0 0 0 1.742 1.222c.694.243 1.378.46 2.054.65.694.19 1.274.425 1.742.702.486.277.728.624.728 1.04 0 .867-.814 1.3-2.444 1.3h-4.498v2.184h4.498c3.19 0 4.784-1.161 4.784-3.484 0-.33-.034-.659-.104-.988-.069-.347-.234-.693-.494-1.04-.242-.364-.598-.65-1.066-.858-.468-.208-1.187-.468-2.158-.78a52.534 52.534 0 0 0-1.664-.52l-.546-.234a3.01 3.01 0 0 1-.52-.338 1.748 1.748 0 0 1-.286-.39 1.262 1.262 0 0 1-.13-.572c0-.347.182-.615.546-.806Zm9.026-2.47-1.04 2.184h2.132V20.46h2.288V7.98h-3.38Zm.65-3.562c0 .347.112.667.338.962.225.277.572.416 1.04.416.468 0 .814-.139 1.04-.416a1.55 1.55 0 0 0 .338-.962c0-.347-.113-.659-.338-.936-.226-.295-.572-.442-1.04-.442-.468 0-.815.147-1.04.442-.226.277-.338.59-.338.936Zm12.887 9.542c1.872-1.404 2.808-3.276 2.808-5.616V7.98h-2.288v.364c0 2.097-.927 3.58-2.782 4.446-.901-.45-1.595-1.083-2.08-1.898a5.331 5.331 0 0 1-.702-2.704V7.98h-2.288v.208c0 2.444.936 4.368 2.808 5.772-1.872 1.387-2.808 3.293-2.808 5.72v.78h2.288v-.78c0-.988.234-1.89.702-2.704.486-.815 1.179-1.439 2.08-1.872.919.416 1.612 1.014 2.08 1.794.468.78.702 1.655.702 2.626v.936h2.288v-.936a6.825 6.825 0 0 0-.728-3.094 6.653 6.653 0 0 0-2.08-2.47Z" fill="#00788A"/><path d="M31.638 3.716C30.546 4.86 30 6.455 30 8.5v11.96h2.444V8.396c0-1.23.312-2.219.936-2.964.641-.763 1.517-1.144 2.626-1.144 1.144 0 2.02.338 2.626 1.014.624.659.936 1.508.936 2.548 0 1.057-.338 1.941-1.014 2.652-.659.693-1.569 1.04-2.73 1.04h-2.236v2.288h1.95c.815 0 1.595-.104 2.34-.312a7.462 7.462 0 0 0 2.106-.962c.659-.433 1.179-1.049 1.56-1.846.399-.797.598-1.733.598-2.808 0-1.716-.537-3.129-1.612-4.238C39.473 2.554 37.973 2 36.032 2c-1.82 0-3.285.572-4.394 1.716ZM44.622 7.98l-1.04 2.184h2.132V20.46h2.288V7.98h-3.38Zm.65-3.562c0 .347.113.667.338.962.225.277.572.416 1.04.416.468 0 .815-.139 1.04-.416a1.55 1.55 0 0 0 .338-.962c0-.347-.113-.659-.338-.936-.225-.295-.572-.442-1.04-.442-.468 0-.815.147-1.04.442-.225.277-.338.59-.338.936Zm8.961 6.032c.364-.19.798-.286 1.3-.286h4.602V7.98h-4.602c-1.16 0-2.149.286-2.964.858-.814.555-1.222 1.36-1.222 2.418 0 .832.234 1.534.702 2.106a4.37 4.37 0 0 0 1.742 1.222c.694.243 1.378.46 2.054.65.694.19 1.274.425 1.742.702.486.277.728.624.728 1.04 0 .867-.814 1.3-2.444 1.3h-4.498v2.184h4.498c3.19 0 4.784-1.161 4.784-3.484 0-.33-.034-.659-.104-.988-.069-.347-.234-.693-.494-1.04-.242-.364-.598-.65-1.066-.858-.468-.208-1.187-.468-2.158-.78a52.534 52.534 0 0 0-1.664-.52l-.546-.234a3.01 3.01 0 0 1-.52-.338 1.748 1.748 0 0 1-.286-.39 1.262 1.262 0 0 1-.13-.572c0-.347.182-.615.546-.806Zm9.026-2.47-1.04 2.184h2.132V20.46h2.288V7.98h-3.38Zm.65-3.562c0 .347.112.667.338.962.225.277.572.416 1.04.416.468 0 .814-.139 1.04-.416a1.55 1.55 0 0 0 .338-.962c0-.347-.113-.659-.338-.936-.226-.295-.572-.442-1.04-.442-.468 0-.815.147-1.04.442-.226.277-.338.59-.338.936Zm12.887 9.542c1.872-1.404 2.808-3.276 2.808-5.616V7.98h-2.288v.364c0 2.097-.927 3.58-2.782 4.446-.901-.45-1.595-1.083-2.08-1.898a5.331 5.331 0 0 1-.702-2.704V7.98h-2.288v.208c0 2.444.936 4.368 2.808 5.772-1.872 1.387-2.808 3.293-2.808 5.72v.78h2.288v-.78c0-.988.234-1.89.702-2.704.486-.815 1.179-1.439 2.08-1.872.919.416 1.612 1.014 2.08 1.794.468.78.702 1.655.702 2.626v.936h2.288v-.936a6.825 6.825 0 0 0-.728-3.094 6.653 6.653 0 0 0-2.08-2.47Z" stroke="#00788A"/><rect width="24" height="24" rx="5" fill="#74DCDF"/><path d="M13.632 18.147c.672-.504 1.008-1.176 1.008-2.016V16h-.821v.13c0 .754-.333 1.286-.999 1.597a1.764 1.764 0 0 1-.747-.682 1.914 1.914 0 0 1-.252-.97V16H11v.075c0 .877.336 1.568 1.008 2.072C11.336 18.644 11 19.329 11 20.2v.28h.821v-.28c0-.355.084-.678.252-.97a1.71 1.71 0 0 1 .747-.673c.33.15.579.364.747.644.168.28.252.595.252.943v.336h.821v-.336a2.45 2.45 0 0 0-.261-1.11 2.389 2.389 0 0 0-.747-.887Z" fill="#00788A" stroke="#00788A" stroke-width=".359"/><path d="M8.118 5.53c-.973 1.02-1.46 2.442-1.46 4.266V20.46h2.179V9.703c0-1.097.278-1.978.835-2.643.571-.68 1.352-1.02 2.341-1.02 1.02 0 1.8.301 2.342.904.556.588.834 1.345.834 2.272 0 .943-.301 1.731-.904 2.365-.587.618-1.399.927-2.434.927H9.857v2.04h1.739c.726 0 1.422-.092 2.086-.278a6.654 6.654 0 0 0 1.878-.858c.587-.386 1.051-.935 1.391-1.646.355-.71.533-1.545.533-2.503 0-1.53-.479-2.79-1.437-3.78C15.104 4.496 13.767 4 12.037 4c-1.624 0-2.93.51-3.919 1.53Z" fill="#00788A" stroke="#00788A" stroke-width=".892"/></svg>