<svg width="48" height="48" fill="none" xmlns="http://www.w3.org/2000/svg"><path d="M48 41.333A6.667 6.667 0 0 1 41.333 48H6.667A6.667 6.667 0 0 1 0 41.333V6.667A6.667 6.667 0 0 1 6.667 0h34.666A6.667 6.667 0 0 1 48 6.667v34.666Z" fill="#74DCDF"/><path d="M33.272 18.552c-.681.313-1.545.606-2.318.703.787-.482 2.034-1.487 2.318-2.396-.735.447-2.064.924-2.93 1.096-.693-.759-1.68-1.096-2.775-1.096-2.102 0-3.568 1.841-3.568 3.993v1.598c-3.09 0-6.104-2.434-7.98-4.792a3.943 3.943 0 0 0-.515 1.962c0 1.453 1.291 2.927 2.313 3.628-.623-.02-1.804-.512-2.318-.798v.045c0 1.89 1.284 3.174 3.023 3.532-.317.09-.704.416-2.194.416.483 1.545 2.915 2.362 4.58 2.395-1.302 1.044-3.625 1.598-5.409 1.598-.308 0-.475.017-.772-.019 1.683 1.102 4.033 1.616 6.181 1.616 6.999 0 10.819-5.525 10.819-10.678 0-.169-.006-.736-.014-.902.748-.544 1.05-1.115 1.559-1.9Z" fill="#fff"/></svg>