<svg width="48" height="48" fill="none" xmlns="http://www.w3.org/2000/svg"><path d="M48 41.333A6.667 6.667 0 0 1 41.333 48H6.667A6.667 6.667 0 0 1 0 41.333V6.667A6.667 6.667 0 0 1 6.667 0h34.666A6.667 6.667 0 0 1 48 6.667v34.666Z" fill="#74DCDF"/><path d="M19.11 21.589h-3.841v11.248h3.84V21.589Zm-.646-5.249a2.427 2.427 0 0 0-2.092-.185 2.252 2.252 0 0 0-.724.441c-.207.19-.37.413-.482.66a1.859 1.859 0 0 0 .216 1.898 2.2 2.2 0 0 0 1.002.739c.407.151.855.19 1.286.11a2.294 2.294 0 0 0 1.137-.556c.31-.283.521-.643.607-1.035a1.85 1.85 0 0 0-.13-1.167 2.079 2.079 0 0 0-.82-.905Zm6.811 5.248h-3.7l-.013 11.271h3.84v-5.565c0-1.464.308-2.882 2.305-2.882 1.998 0 1.998 1.685 1.998 2.986v5.438h3.84v-6.17c0-3.032-.78-5.356-4.621-5.356a4.384 4.384 0 0 0-2.101.448 3.885 3.885 0 0 0-1.548 1.364v-1.534Z" fill="#fff"/></svg>