<svg width="169" height="113" fill="none" xmlns="http://www.w3.org/2000/svg"><path d="M70.968 51.843h4.101v12.901h-4.1v-12.9Zm4.965.001h3.949v1.767h.076c.952-1.386 2.184-2.135 3.974-2.135 2.819 0 4.482 2.02 4.482 4.893v8.389h-4.1v-7.563c0-1.36-.686-2.288-2.02-2.288-1.358 0-2.26 1.132-2.26 2.72v7.131h-4.1V51.844Zm-2.912-.978a2.465 2.465 0 0 0 2.463-2.466 2.465 2.465 0 0 0-2.463-2.465 2.465 2.465 0 0 0-2.463 2.465 2.465 2.465 0 0 0 2.463 2.466Zm44.239.788c-.115-.013-.254-.013-.407-.013-1.561 0-2.615.687-3.529 2.212h-.077v-2.008h-3.923v12.9h4.101V58.95c0-2.682 1.486-3.928 3.835-3.712v-3.584Zm20.136 4.956c-1.638-.304-3.098-.431-3.098-1.334 0-.8.774-1.182 1.79-1.182 1.13 0 1.917.356 2.07 1.512h3.771c-.203-2.542-2.159-4.13-5.816-4.13-3.047 0-5.561 1.41-5.561 4.13 0 3.026 2.387 3.623 4.635 4.004 1.714.305 3.275.432 3.275 1.59 0 .825-.774 1.283-2.018 1.283-1.232 0-2.057-.521-2.311-1.589h-3.911c.292 2.657 2.616 4.258 6.247 4.258 3.377 0 5.866-1.462 5.866-4.283-.013-3.305-2.679-3.877-4.939-4.258Zm-13.547 5.569c-1.688 0-2.641-1.08-2.895-2.822h9.257c.025-2.618-.724-4.868-2.26-6.279-1.105-1.004-2.565-1.614-4.406-1.614-3.924 0-6.616 2.949-6.616 6.8 0 3.902 2.616 6.851 6.87 6.851 1.638 0 2.945-.432 4.025-1.182 1.13-.775 1.891-1.894 2.158-3.05h-4c-.342.813-1.041 1.296-2.133 1.296Zm-.228-7.791c1.333 0 2.285.978 2.438 2.516h-5.079c.279-1.525 1.092-2.517 2.641-2.517Zm25.927 7.321c-.19.012-.444.012-.685.012-.877 0-1.435-.254-1.435-1.258v-6.05h2.12v-2.568h-2.12v-4.08h-4v4.08h-1.257v2.568h1.257v6.927c0 2.771 1.714 3.56 4.101 3.56.915 0 1.6-.065 2.019-.153v-3.038Zm-53.81 0c-.165 0-.356.012-.533.012-.876 0-1.435-.254-1.435-1.258v-6.05h1.968v-2.568H93.77v-4.08h-4v4.08h-1.333v2.568h1.333v6.927c0 2.771 1.715 3.56 4.102 3.56.812 0 1.447-.052 1.866-.128v-3.063Z" fill="#000"/><path d="M95.535 58.276c0-3.851 2.692-6.8 6.615-6.8 1.841 0 3.301.61 4.406 1.614 1.536 1.41 2.286 3.648 2.26 6.279H99.56c.254 1.741 1.206 2.822 2.895 2.822 1.079 0 1.79-.483 2.133-1.284h4c-.28 1.157-1.029 2.262-2.159 3.05-1.079.75-2.387 1.183-4.025 1.183-4.254-.013-6.87-2.962-6.87-6.864Zm9.142-1.36c-.153-1.538-1.105-2.517-2.438-2.517-1.562 0-2.362.979-2.641 2.517h5.079ZM56.542 46.735h7.123c2.184 0 3.797.61 4.914 1.665 1.156 1.08 1.816 2.619 1.816 4.436 0 3.457-2.387 5.898-6.095 5.898h-3.606v6.024h-4.152V46.736Zm7.301 8.465c1.613 0 2.514-.953 2.514-2.39 0-1.436-.927-2.313-2.514-2.313h-3.149v4.716h3.15V55.2Z" fill="#000"/><path d="M35.363 71.66c8.52 0 15.427-6.913 15.427-15.442 0-8.53-6.907-15.444-15.427-15.444S19.936 47.69 19.936 56.218 26.843 71.66 35.363 71.66Z" fill="#fff"/><path d="M35.363 40.774c-8.532 0-15.427 6.915-15.427 15.444 0 6.545 4.063 12.138 9.802 14.388-.14-1.22-.253-3.102.051-4.436.28-1.208 1.803-7.677 1.803-7.677s-.457-.928-.457-2.288c0-2.148 1.244-3.75 2.793-3.75 1.321 0 1.956.992 1.956 2.174 0 1.322-.838 3.305-1.283 5.148-.368 1.538.775 2.796 2.286 2.796 2.742 0 4.85-2.898 4.85-7.067 0-3.699-2.654-6.28-6.45-6.28-4.393 0-6.97 3.293-6.97 6.7 0 1.321.507 2.745 1.142 3.52a.46.46 0 0 1 .102.445c-.115.483-.381 1.538-.432 1.754-.064.28-.229.343-.52.203-1.905-.915-3.099-3.736-3.099-5.999 0-4.868 3.53-9.342 10.196-9.342 5.345 0 9.51 3.813 9.51 8.923 0 5.325-3.352 9.609-7.999 9.609-1.562 0-3.035-.814-3.53-1.78l-.965 3.674c-.343 1.347-1.282 3.025-1.917 4.054 1.447.445 2.971.687 4.571.687 8.52 0 15.427-6.915 15.427-15.444-.013-8.541-6.92-15.456-15.44-15.456Z" fill="#000"/></svg>