<svg width="56" height="40" fill="none" xmlns="http://www.w3.org/2000/svg"><path d="M33.173 34.375C35.276 37.458 38.598 39 43.14 39c3.533 0 6.393-.958 8.58-2.875 2.187-2 3.28-4.625 3.28-7.875 0-3.417-1.01-6.042-3.028-7.875-2.019-1.917-4.71-2.875-8.075-2.875-3.953 0-7.023 1.292-9.21 3.875-.168-.583-.252-1.5-.252-2.75 0-1.583.21-2.958.63-4.125.673-2.083 1.85-4.042 3.533-5.875 1.767-1.917 3.743-3.375 5.93-4.375L43.392 2c-4.373 2-7.696 4.833-9.967 8.5-2.27 3.667-3.406 7.667-3.406 12 0 2.5.294 4.792.883 6.875s1.346 3.75 2.27 5Zm-29.019 0C6.257 37.458 9.58 39 14.121 39c3.533 0 6.393-.958 8.58-2.875 2.187-2 3.28-4.625 3.28-7.875 0-3.417-1.009-6.042-3.028-7.875-2.018-1.917-4.71-2.875-8.074-2.875-3.954 0-7.024 1.292-9.21 3.875-.169-.583-.253-1.5-.253-2.75 0-1.583.21-2.958.63-4.125.674-2.083 1.851-4.042 3.533-5.875 1.767-1.917 3.743-3.375 5.93-4.375L14.374 2C10 4 6.678 6.833 4.407 10.5 2.136 14.167 1 18.167 1 22.5c0 2.5.294 4.792.883 6.875s1.346 3.75 2.271 5Z" opacity=".3" stroke="#00788A" stroke-width="2"/></svg>