<svg width="1440" height="803" fill="none" xmlns="http://www.w3.org/2000/svg"><path fill="#fff" d="M0 0h1440v803H0z"/><path d="m1121.41 403.5.85.54-.85-.54Zm-3 168.5 10.94-3.701-8.67-7.622-2.27 11.323Zm100.5-231c0 50.742-31.64 77.525-59.6 85.98-14.03 4.245-26.95 3.818-34.47-.302-3.72-2.04-6.06-4.947-6.68-8.618-.62-3.705.49-8.389 4.1-14.02l-1.69-1.08c-3.76 5.869-5.11 11.06-4.38 15.431.74 4.405 3.56 7.776 7.69 10.041 8.19 4.488 21.73 4.781 36.01.463 28.67-8.67 61.02-36.137 61.02-87.895h-2Zm-96.65 63.04c7.28-11.352 18.73-16.067 29.91-14.6 11.19 1.468 22.21 9.153 28.48 22.842 12.55 27.386 6.13 79.065-57.06 152.311l1.52 1.306c63.33-73.406 70.42-125.95 57.36-154.45-6.53-14.252-18.1-22.426-30.04-23.992-11.95-1.569-24.16 3.504-31.86 15.503l1.69 1.08Z" fill="#74DCDF"/><path d="M228.968 83.723c-90.501-35 92 189.5 0 142.5" stroke="#74DCDF" stroke-width="2"/><path d="M233 384.5a17.508 17.508 0 0 0-5.126-12.374A17.51 17.51 0 0 0 215.5 367v17.5H233Z" fill="#FCB009"/><path d="M1070 62.5a17.449 17.449 0 0 0-5.13-12.374A17.45 17.45 0 0 0 1052.5 45v17.5h17.5Z" fill="#FFDC8F"/><path d="M1010 578.5a17.448 17.448 0 0 0-5.13-12.374 17.44 17.44 0 0 0-5.673-3.794A17.508 17.508 0 0 0 992.5 561v17.5h17.5Z" fill="#43808C"/><path d="M424 608.5a17.496 17.496 0 0 0-10.803-16.168 17.491 17.491 0 0 0-19.071 3.794 17.491 17.491 0 0 0-3.794 19.071A17.503 17.503 0 0 0 406.5 626v-17.5H424Z" fill="#74DCDF"/></svg>