<svg width="170" height="113" fill="none" xmlns="http://www.w3.org/2000/svg"><path d="M32.16 58.02h-8.673v-2.155H34.67c-.294-.914-1.24-1.763-2.902-1.763h-8.12c-1.858 0-2.934.686-2.934 2.187v1.6c0 1.305 1.109 2.056 2.74 2.056h8.77v2.285H20.422c.293 1.24 1.239 1.893 2.934 1.893h8.837c1.858 0 2.771-.718 2.771-2.252v-1.6c0-1.403-1.076-2.154-2.804-2.252Zm17.706-3.885H39.17v10.02h3.032v-3.851h7.89c2.185 0 3.392-.75 3.392-2.513v-1.11c-.033-1.632-1.402-2.546-3.62-2.546Zm.978 3.199c0 .718-.13 1.11-1.305 1.11h-7.336l.033-2.612h7.173c1.304 0 1.467.392 1.467 1.077v.425h-.032Zm12.716 2.905h-6.456l-1.597 1.697h9.325l1.598 2.22h3.587L62.289 53.71l-1.826 2.253 3.097 4.276Zm12.26-4.374h11.348c-.294-1.175-1.435-1.763-3.065-1.763h-8.478c-1.467 0-2.87.588-2.87 2.187v5.614c0 1.6 1.403 2.187 2.87 2.187H84.2c1.956 0 2.64-.555 2.967-1.893H75.82v-6.332Zm24.651 3.33v-1.698h-9.162v6.659h13.532v-1.894H94.374v-3.068h6.097Zm-8.836-5.06h13.662v1.762H91.635v-1.762Zm22.075 0h-4.761l5.608 4.113a43.658 43.658 0 0 1 2.609-1.633l-3.456-2.48Zm6.912 5.124c-.815.555-1.63 1.175-2.413 1.763l4.239 3.101h4.793l-6.619-4.864Z" fill="#000"/><path d="M150.036 48.291c-26.086 1.502-38.15 12.665-40.857 15.309l-.554.522h4.826c13.042-13.09 31.791-15.407 36.585-15.831Z" fill="#000"/></svg>