<svg width="54" height="52" fill="none" xmlns="http://www.w3.org/2000/svg"><path d="M0 26.968a7.457 7.457 0 0 1 7.457-7.457h3.728v19.174H7.457A7.457 7.457 0 0 1 0 31.228v-4.26Zm53.26 0a7.457 7.457 0 0 0-7.456-7.457h-3.728v19.174h3.728a7.457 7.457 0 0 0 7.457-7.457v-4.26ZM21.304 48.804A3.196 3.196 0 0 1 24.5 45.61h4.26a3.196 3.196 0 0 1 0 6.39H24.5a3.196 3.196 0 0 1-3.196-3.195Zm-1.598-.799H18.11c-4.603 0-8.427-3.336-9.185-7.722H7.306c.773 5.272 5.315 9.32 10.803 9.32h1.597v-1.598Z" fill="#5CC5C7"/><path d="M53.26 26.968a7.457 7.457 0 0 0-7.456-7.457h-3.728v19.174h3.728a7.457 7.457 0 0 0 7.457-7.457v-4.26Z" fill="#5CC5C7"/><path d="M9.054 29.63v-9.054C9.054 10.87 16.924 3 26.63 3c9.707 0 17.576 7.87 17.576 17.576v9.054" stroke="#5CC5C7" stroke-width="4.261"/></svg>