<svg width="131" height="21" viewBox="0 0 131 21" fill="none" xmlns="http://www.w3.org/2000/svg">
<path d="M54.8603 0.787132H57.7208V4.37018C58.0617 4.01938 58.4423 3.75635 58.8637 3.58079C59.2848 3.40621 59.7462 3.31777 60.2471 3.31777C61.2219 3.31777 62.0052 3.6296 62.5968 4.25325C63.188 4.87657 63.4835 5.70298 63.4835 6.73279C63.4835 7.66991 63.192 8.42032 62.6082 8.98566C62.0248 9.55036 61.2506 9.8327 60.2834 9.8327C59.7507 9.8327 59.2671 9.73575 58.8333 9.54086C58.4007 9.34597 58.03 9.05903 57.7208 8.6817C57.7208 8.88674 57.7136 9.07312 57.6969 9.24213C57.6812 9.41114 57.6547 9.5569 57.6184 9.68137H54.7579C54.79 9.56542 54.8145 9.41934 54.8329 9.24541C54.8512 9.0705 54.8603 8.87102 54.8603 8.64567V0.787132ZM60.592 6.60832C60.592 6.06131 60.4634 5.63059 60.2062 5.31483C59.95 4.99875 59.6009 4.84119 59.1601 4.84119C58.6863 4.84119 58.3241 4.99318 58.0735 5.29682C57.8232 5.60045 57.6969 6.04067 57.6969 6.62011C57.6969 7.16711 57.8238 7.59194 58.0761 7.89558C58.3294 8.19824 58.6818 8.34989 59.1356 8.34989C59.5813 8.34989 59.9353 8.19365 60.198 7.88019C60.4608 7.5664 60.592 7.14255 60.592 6.60832ZM70.0096 8.68782C69.7377 9.04616 69.3833 9.31114 68.9501 9.48376C68.5163 9.65638 67.9914 9.74319 67.3733 9.74319C66.4928 9.74319 65.8171 9.58628 65.3437 9.27315C64.8699 8.95968 64.6333 8.51586 64.6333 7.94134C64.6333 7.15785 65.0413 6.59217 65.8577 6.24399C66.6751 5.89711 68.0425 5.715 69.9622 5.69895C69.9622 5.68715 69.9638 5.6639 69.9677 5.62983C69.972 5.59577 69.9739 5.57087 69.9739 5.55482C69.9739 5.23808 69.8784 5.00127 69.6883 4.8447C69.4972 4.68879 69.2119 4.61017 68.83 4.61017C68.4858 4.61017 68.2205 4.6675 68.0359 4.78182C67.852 4.8958 67.7418 5.06776 67.7058 5.29606H65.0652C65.078 4.60886 65.4026 4.09724 66.0416 3.76216C66.6803 3.42642 67.6534 3.25871 68.9626 3.25871C70.2197 3.25871 71.1561 3.45425 71.7706 3.846C72.3835 4.23709 72.6917 4.83389 72.6917 5.63343V8.791C72.6917 8.98655 72.7012 9.14508 72.7192 9.26529C72.7372 9.38583 72.7676 9.4972 72.8121 9.60169H70.1614C70.1081 9.45396 70.0708 9.30459 70.0463 9.15491C70.0224 9.00456 70.0096 8.84865 70.0096 8.68782ZM69.9497 6.91906C69.0241 6.91906 68.3936 6.97966 68.0582 7.09987C67.7221 7.22041 67.5539 7.43102 67.5539 7.73204C67.5539 7.93643 67.6357 8.09595 67.7984 8.20994C67.9616 8.32425 68.1917 8.38157 68.4901 8.38157C68.9766 8.38157 69.3415 8.26791 69.5843 8.04157C69.828 7.81491 69.9497 7.47295 69.9497 7.01602V6.91906ZM73.9935 0.787132H76.8549V4.37018C77.1949 4.01938 77.5764 3.75635 77.9975 3.58079C78.4183 3.40621 78.8803 3.31777 79.3809 3.31777C80.355 3.31777 81.1384 3.6296 81.7303 4.25325C82.3212 4.87657 82.617 5.70298 82.617 6.73279C82.617 7.66991 82.3251 8.42032 81.7414 8.98566C81.1583 9.55036 80.3838 9.8327 79.4166 9.8327C78.8833 9.8327 78.4003 9.73575 77.9674 9.54086C77.5345 9.34597 77.1635 9.05903 76.8549 8.6817C76.8549 8.88674 76.8468 9.07312 76.8304 9.24213C76.8147 9.41114 76.7885 9.5569 76.7519 9.68137H73.8914C73.9228 9.56542 73.9487 9.41934 73.9664 9.24541C73.9853 9.0705 73.9935 8.87102 73.9935 8.64567V0.787132ZM79.7255 6.60832C79.7255 6.06131 79.5969 5.63059 79.3404 5.31483C79.0835 4.99875 78.7344 4.84119 78.293 4.84119C77.8199 4.84119 77.4576 4.99318 77.207 5.29682C76.9564 5.60045 76.8304 6.04067 76.8304 6.62011C76.8304 7.16711 76.9567 7.59194 77.2093 7.89558C77.4632 8.19824 77.8156 8.34989 78.2694 8.34989C78.7148 8.34989 79.0678 8.19365 79.3312 7.88019C79.5943 7.5664 79.7255 7.14255 79.7255 6.60832ZM89.1433 8.68782C88.8704 9.04616 88.518 9.31114 88.0841 9.48376C87.6499 9.65638 87.125 9.74319 86.5066 9.74319C85.6278 9.74319 84.9498 9.58628 84.477 9.27315C84.0038 8.95968 83.767 8.51586 83.767 7.94134C83.767 7.15785 84.175 6.59217 84.9914 6.24399C85.809 5.89711 87.1768 5.715 89.0958 5.69895C89.0958 5.68715 89.0984 5.6639 89.1024 5.62983C89.1056 5.59577 89.1069 5.57087 89.1069 5.55482C89.1069 5.23808 89.012 5.00127 88.8219 4.8447C88.6318 4.68879 88.3452 4.61017 87.9647 4.61017C87.6195 4.61017 87.3544 4.6675 87.1702 4.78182C86.986 4.8958 86.876 5.06776 86.8394 5.29606H84.1998C84.212 4.60886 84.5365 4.09724 85.1752 3.76216C85.8136 3.42642 86.7884 3.25871 88.0969 3.25871C89.354 3.25871 90.2891 3.45425 90.9046 3.846C91.5191 4.23709 91.8257 4.83389 91.8257 5.63343V8.791C91.8257 8.98655 91.8345 9.14508 91.8528 9.26529C91.8708 9.38583 91.9026 9.4972 91.9461 9.60169H89.2951C89.2424 9.45396 89.2038 9.30459 89.1796 9.15491C89.1563 9.00456 89.1433 8.84865 89.1433 8.68782ZM89.0834 6.91906C88.1584 6.91906 87.5278 6.97966 87.1912 7.09987C86.8558 7.22041 86.6876 7.43102 86.6876 7.73204C86.6876 7.93643 86.7697 8.09595 86.9323 8.20994C87.0963 8.32425 87.3253 8.38157 87.6237 8.38157C88.1099 8.38157 88.4751 8.26791 88.7192 8.04157C88.9617 7.81491 89.0834 7.47295 89.0834 7.01602V6.91906ZM100.534 6.3129V5.27458H104.272V8.54613C103.697 9.00306 103.106 9.34698 102.496 9.5779C101.887 9.80784 101.26 9.92314 100.618 9.92314C99.7517 9.92314 98.9644 9.73774 98.2564 9.36565C97.5483 8.99421 97.0146 8.45704 96.6524 7.75412C96.2908 7.04989 96.1112 6.26541 96.1112 5.39741C96.1112 4.53825 96.2905 3.73542 96.6504 2.9896C97.0081 2.2441 97.5251 1.69087 98.1997 1.32925C98.8731 0.967641 99.6499 0.787163 100.527 0.787163C101.166 0.787163 101.743 0.890667 102.257 1.09768C102.773 1.30534 103.178 1.59359 103.471 1.96405C103.764 2.33418 103.986 2.81632 104.138 3.41181L103.081 3.70038C102.948 3.25066 102.784 2.89592 102.588 2.63814C102.392 2.37937 102.112 2.1727 101.746 2.01777C101.382 1.86218 100.979 1.7852 100.534 1.7852C100.001 1.7852 99.5413 1.86643 99.1522 2.02955C98.7632 2.193 98.4507 2.40787 98.2125 2.67384C97.9736 2.93916 97.7888 3.23133 97.6563 3.54938C97.4321 4.09704 97.3205 4.69186 97.3205 5.33156C97.3205 6.12194 97.4547 6.78195 97.726 7.31389C97.9959 7.8455 98.3885 8.2402 98.9068 8.49798C99.4215 8.75576 99.9716 8.88481 100.551 8.88481C101.056 8.88481 101.548 8.7872 102.03 8.591C102.509 8.39578 102.875 8.18647 103.123 7.96472V6.3129H100.534ZM105.987 9.80266V3.3991H106.964V4.37126C107.215 3.91793 107.445 3.61954 107.657 3.47476C107.868 3.33064 108.101 3.25858 108.355 3.25858C108.721 3.25858 109.094 3.37356 109.473 3.60415L109.094 4.61004C108.829 4.45511 108.564 4.37782 108.299 4.37782C108.062 4.37782 107.85 4.44857 107.66 4.59105C107.472 4.73419 107.337 4.93268 107.256 5.18522C107.136 5.5714 107.075 5.99295 107.075 6.45119V9.80266H105.987ZM109.69 6.6014C109.69 5.41666 110.02 4.53916 110.679 3.96857C111.228 3.49494 111.899 3.25845 112.69 3.25845C113.57 3.25845 114.289 3.54603 114.848 4.12219C115.405 4.69835 115.684 5.49494 115.684 6.511C115.684 7.33446 115.561 7.98203 115.314 8.45337C115.067 8.92536 114.708 9.29156 114.235 9.55294C113.764 9.81302 113.248 9.94437 112.69 9.94437C111.794 9.94437 111.071 9.65678 110.519 9.08258C109.965 8.50839 109.69 7.68166 109.69 6.6014ZM110.808 6.60304C110.808 7.42322 110.987 8.0364 111.343 8.44452C111.7 8.85297 112.149 9.05703 112.69 9.05703C113.227 9.05703 113.675 8.85134 114.03 8.4419C114.387 8.03214 114.565 7.40652 114.565 6.56735C114.565 5.77533 114.387 5.17559 114.028 4.76746C113.669 4.35999 113.223 4.15495 112.69 4.15495C112.149 4.15495 111.7 4.35868 111.343 4.76451C110.987 5.17034 110.808 5.78319 110.808 6.60304ZM121.308 9.66202V8.71475C120.81 9.43994 120.135 9.80351 119.281 9.80351C118.902 9.80351 118.551 9.73113 118.224 9.58602C117.897 9.4419 117.654 9.26012 117.496 9.04066C117.338 8.82153 117.227 8.55359 117.162 8.23652C117.118 8.02395 117.096 7.68624 117.096 7.22407V3.25845H118.185V6.8058C118.185 7.37213 118.206 7.75339 118.251 7.94992C118.318 8.23521 118.463 8.45893 118.683 8.62172C118.903 8.78386 119.177 8.86607 119.501 8.86607C119.826 8.86607 120.13 8.78222 120.416 8.61484C120.7 8.44943 120.901 8.22212 121.019 7.93519C121.137 7.64825 121.197 7.23194 121.197 6.68428V3.25845H122.284V9.66202H121.308ZM124.503 12.2534V3.39913H125.489V4.23176C125.722 3.90683 125.986 3.66347 126.279 3.50133C126.572 3.33887 126.928 3.25862 127.344 3.25862C127.89 3.25862 128.372 3.39783 128.789 3.67919C129.207 3.96055 129.522 4.35721 129.734 4.86917C129.947 5.38113 130.054 5.94255 130.054 6.55244C130.054 7.20688 129.936 7.79646 129.701 8.32054C129.467 8.84462 129.125 9.24652 128.679 9.52527C128.232 9.80434 127.762 9.9442 127.27 9.9442C126.908 9.9442 126.585 9.86821 126.297 9.71656C126.011 9.56458 125.774 9.3723 125.591 9.1404V12.2534H124.503ZM125.48 6.63793C125.48 7.46237 125.646 8.07128 125.979 8.46532C126.312 8.86002 126.713 9.05687 127.187 9.05687C127.667 9.05687 128.078 8.85281 128.421 8.44403C128.765 8.03656 128.935 7.40439 128.935 6.54752C128.935 5.7316 128.768 5.1204 128.433 4.71424C128.099 4.30874 127.699 4.10467 127.235 4.10467C126.773 4.10467 126.366 4.32151 126.012 4.75322C125.658 5.18591 125.48 5.81382 125.48 6.63793Z" fill="#FF6600"/>
<path d="M4.70417 17.4736C4.54547 17.4553 4.29745 17.3141 4.12141 17.1726C2.44613 15.53 4.59717 13.641 7.08556 12.5463V9.42117C7.66733 9.79228 7.98537 9.80931 8.00239 9.86237L9.90737 7.97339L9.27227 6.34809C14.8469 4.42341 17.0866 3.68152 21.6203 2.92292L20.8075 2.16267L22.1317 1.40439C25.1829 2.41161 28.0594 2.67561 27.5643 5.23606C27.6883 3.50562 25.536 2.83414 22.2551 1.91635L21.6203 2.30417L22.8369 3.31106C17.4046 4.24687 14.0704 5.30682 10.1014 6.68384L10.6478 8.09688L8.65516 10.0566C8.99087 10.1451 12.4655 11.3101 16.0807 8.78539C16.0807 8.78539 16.1521 8.732 16.1521 8.71464C16.047 8.53809 15.799 8.34319 15.4996 8.07919C16.5581 8.14994 17.2449 9.08543 17.1219 10.0566H16.6282C16.6632 9.73856 16.5925 9.40315 16.4875 9.17386C13.6827 11.2224 10.4368 11.5227 7.66733 10.5512V12.9702C6.32677 13.4471 3.92705 14.9292 3.94538 16.3609C4.0334 17.0491 4.38645 17.2961 4.70417 17.4736Z" fill="black"/>
<path d="M16.1601 16.6634C13.1593 18.1819 10.2855 19.4004 5.85776 19.5769C0.0897982 19.4528 -0.809688 15.6204 1.92411 11.6129C4.49953 7.56929 8.59221 3.9132 15.1013 1.63509C16.9879 0.96591 19.7577 0.205664 22.4389 0.170288C26.2845 0.134586 30.0248 1.3357 29.7771 5.02653C29.6357 7.85196 25.562 11.8422 23.409 14.7033C22.4915 15.9562 22.3325 16.7692 23.9021 16.6987C29.601 16.327 34.7689 14.3502 39.5667 12.3014C36.3218 14.5087 19.5454 22.8252 19.476 17.158C19.493 16.4331 19.8278 15.6742 20.3745 14.8622C20.9046 14.0495 21.6451 13.2018 22.4035 12.3368C23.55 11.0302 26.3898 7.9047 27.3423 6.03243C28.9473 2.48344 25.3493 2.30656 22.2445 1.21222L20.9206 1.9705L21.7334 2.73073C17.1997 3.48967 14.9599 4.23124 9.38535 6.15624L10.0205 7.78121L8.11547 9.67019C8.06279 9.61745 7.78041 9.60042 7.19832 9.22898V12.3541C4.71025 13.4491 2.55888 15.3381 4.23417 16.9804C4.41053 17.1219 4.65856 17.2631 4.81725 17.2814C7.86843 19.0119 16.1762 16.6634 16.1601 16.6634ZM34.1038 18.6963H34.4988C34.5829 18.6963 34.6467 18.6872 34.6938 18.6727C34.7435 18.6547 34.7789 18.6243 34.8024 18.5889C34.826 18.5486 34.84 18.51 34.84 18.4651C34.84 18.3992 34.8148 18.3445 34.7684 18.3026C34.7206 18.2613 34.6467 18.2404 34.5446 18.2404H34.1038V18.6963ZM33.9183 19.4831V18.0838H34.5364C34.6594 18.0838 34.7553 18.0966 34.8181 18.1192C34.8832 18.1467 34.933 18.1886 34.9712 18.2551C35.0118 18.3177 35.0301 18.3874 35.0301 18.4651C35.0301 18.564 34.9974 18.6488 34.9356 18.717C34.8705 18.7828 34.773 18.826 34.6391 18.8467C34.6885 18.8689 34.7252 18.8916 34.7507 18.9158C34.8024 18.9672 34.8554 19.0272 34.9016 19.1018L35.1447 19.4831H34.913L34.7311 19.1949C34.6768 19.1074 34.6296 19.0455 34.5973 18.999C34.5616 18.9551 34.5312 18.9236 34.5027 18.9053C34.4742 18.8883 34.4487 18.8739 34.4199 18.867C34.3983 18.865 34.3653 18.8617 34.3168 18.8617H34.1038V19.4831H33.9183Z" fill="#FF6600"/>
<path d="M34.4799 20.1301C35.2139 20.1301 35.8097 19.5324 35.8097 18.8009C35.8097 18.0659 35.2139 17.4691 34.4799 17.4691C33.748 17.4691 33.1525 18.0659 33.1525 18.8009C33.1525 19.5324 33.748 20.1301 34.4799 20.1301ZM33.3583 18.8009C33.3583 18.1809 33.8605 17.6778 34.4799 17.6778C35.0987 17.6778 35.6019 18.1809 35.6019 18.8009C35.6019 19.4177 35.0987 19.9218 34.4799 19.9218C33.8605 19.9218 33.3583 19.4177 33.3583 18.8009ZM46.1139 12.5263V20.0649C46.6371 20.0649 47.2215 19.5903 47.2215 19.0662V18.6712H47.8488C48.2686 18.6492 48.7518 18.0603 48.7518 17.7661V16.0888C48.7518 15.7733 48.3958 15.545 48.2273 15.4189C48.3958 15.2712 48.7518 15.0203 48.7518 14.7045V12.5263H46.1139ZM47.6639 15.0203C47.6639 15.1454 47.5598 15.3564 47.4332 15.4818C47.4136 15.5041 47.3501 15.5663 47.3501 15.5663C47.3403 15.5748 47.3292 15.587 47.3076 15.587H47.6639V17.7661H47.2241V13.4481H47.6639V15.0203ZM51.8508 17.4091V14.034H49.1919V18.6472H50.5109C50.721 18.6263 50.9732 18.5415 51.1804 18.3954C51.308 18.3112 51.4127 18.2283 51.517 18.1225C51.7055 17.9129 51.8508 17.662 51.8508 17.4091ZM50.2396 14.9155H50.8044V17.7864H50.2396V14.9155ZM48.919 12.5263V13.4481H52.108V20.0649C52.4643 20.0649 53.2345 19.7206 53.2345 19.004V13.4481C53.4642 13.4481 53.6537 12.7772 53.6537 12.5263H48.919ZM58.458 19.1958V18.4913H60.6942C61.0174 18.4913 61.3093 17.939 61.4817 17.6403H58.458V17.0435H60.1395C60.6173 17.0435 61.3947 16.3815 61.4169 16.0409V12.5263H54.222V17.0435H57.1162V17.6403H54.222V18.4913H57.1162V19.1958H54.1376V20.0688H60.8849C61.1624 20.0688 61.4169 19.5162 61.6303 19.1958H58.458ZM58.458 15.2109H59.0329C59.1174 15.2109 59.2034 15.1889 59.2875 15.1244C59.3942 15.0608 59.9053 14.4215 59.9694 14.3563H58.458V13.3772H60.097V16.1912H58.458V15.2109ZM55.5201 15.2109H57.1158V16.1909H55.5201V15.2109ZM55.5201 13.3772H57.1158V14.3563H55.5201V13.3772ZM63.5196 19.0914V16.9672H68.1191C68.5343 16.9672 69.2816 16.2784 69.3013 15.9335V12.5263H62.1613V19.0154C62.1613 19.5339 62.4732 20.0721 63.0556 20.0721H68.5058C68.9168 20.0721 69.4105 19.4157 69.4956 19.0914H63.5196ZM66.4382 13.4955H67.9555V15.997H66.4382V13.4955ZM63.5297 13.4955H65.1242V15.997H63.5297V13.4955ZM72.1566 19.0914V16.9672H76.7571C77.174 16.9672 77.92 16.2784 77.9422 15.9335V12.5263H70.8023V19.0154C70.8023 19.5339 71.1141 20.0721 71.6959 20.0721H77.1445C77.5558 20.0721 78.0496 19.4157 78.1366 19.0914H72.1566ZM75.0779 13.4955H76.5958V15.997H75.0779V13.4955ZM72.17 13.4955H73.7619V15.997H72.17V13.4955ZM82.6897 17.7056V17.4691H83.2247V17.6725H86.4679C86.4679 17.6725 86.3887 18.1098 85.6807 18.1098H83.2593V19.2827C83.2593 20.1723 82.6897 20.2788 82.6897 20.2788V18.1432H78.8264V17.7056H82.6897Z" fill="#FF6600"/>
<path d="M80.0627 18.7051H80.6399C80.6399 18.7051 80.0389 19.4801 79.8576 19.6838C79.677 19.8849 79.4361 20.2076 79.0873 20.2076C78.892 20.2076 78.8279 20.2122 78.8279 20.2122L80.0627 18.7051ZM85.5773 18.7051H85.0001C85.0001 18.7051 85.6018 19.4801 85.7818 19.6838C85.9627 19.8849 86.2038 20.2076 86.5523 20.2076C86.7467 20.2076 86.8115 20.2122 86.8115 20.2122L85.5773 18.7051ZM85.6482 13.2691C86.3383 13.2691 86.4695 12.8305 86.4695 12.8305H83.2344L83.4697 12.5266H82.9383L82.667 12.8646H80.4921L80.7601 12.5266H80.2055L78.8276 14.3202H79.4172V16.7722C79.4172 16.7722 79.4774 16.7801 79.5566 16.7722C80.4123 16.7722 80.4842 16.6599 80.4842 16.6599H85.6482C86.3347 16.6599 86.4014 16.2495 86.4014 16.2495H83.1886V15.5325H85.6482C86.3252 15.5325 86.4351 15.0978 86.4351 15.0978H83.1886V14.3913H85.6482C86.3252 14.3913 86.4351 13.9484 86.4351 13.9484H83.1886V13.2691H85.6482ZM79.9165 15.5656H82.6566V16.2488H79.9165V15.5656ZM79.9165 14.4591H82.6566V15.1322H79.9165V14.4591ZM82.6572 13.9812H79.9165L79.9139 13.7375L80.054 13.5387L80.2379 13.3029H82.6572V13.9812ZM88.086 12.5265V20.1423H94.4871C94.9687 20.1423 95.152 19.6847 95.1284 19.2111V12.5265H88.086ZM94.6104 19.1557C94.6104 19.4315 94.5499 19.6474 94.188 19.6474H88.5637V12.9686H94.6104V19.1557Z" fill="#FF6600"/>
<path d="M90.9389 15.6152L89.3208 18.5359C89.3208 18.5359 89.8637 18.6381 90.1111 18.1232L91.4867 15.6221L90.9389 15.6152Z" fill="#FF6600"/>
<path d="M92.9601 17.9922C92.9601 18.1507 92.9035 18.2294 92.7903 18.2294H92.25V18.6584H92.9368C93.3606 18.6584 93.5003 18.5038 93.478 18.0302C93.478 18.0302 93.4738 15.1841 93.478 15.1841C94.0111 15.1841 94.0441 14.7377 94.0441 14.7377L93.478 14.7432V13.7622H92.9601V14.7432H89.3203V15.2169H92.9601V17.9922Z" fill="#FF6600"/>
</svg>
