<svg width="48" height="48" viewBox="0 0 48 48" fill="none" xmlns="http://www.w3.org/2000/svg">
<path d="M48 41.3333C48 43.1014 47.2976 44.7971 46.0474 46.0474C44.7971 47.2976 43.1014 48 41.3333 48H6.66667C4.89856 48 3.20286 47.2976 1.95262 46.0474C0.702379 44.7971 0 43.1014 0 41.3333V6.66667C0 4.89856 0.702379 3.20286 1.95262 1.95262C3.20286 0.702379 4.89856 0 6.66667 0H41.3333C43.1014 0 44.7971 0.702379 46.0474 1.95262C47.2976 3.20286 48 4.89856 48 6.66667V41.3333Z" fill="#74DCDF"/>
<path d="M19.1097 21.589H15.2689V32.8368H19.1097V21.589Z" fill="white"/>
<path d="M18.464 16.3399C18.0979 16.1183 17.6677 16 17.2277 16C16.9341 16 16.6434 16.0527 16.3722 16.155C16.1011 16.2573 15.855 16.4073 15.648 16.5963C15.4409 16.7853 15.2771 17.0095 15.1659 17.2562C15.0547 17.5028 14.9983 17.7669 15 18.0334C15.0026 18.4328 15.1354 18.8226 15.3817 19.1535C15.628 19.4845 15.9768 19.7418 16.384 19.893C16.7913 20.0443 17.2388 20.0827 17.6701 20.0034C18.1014 19.924 18.4971 19.7306 18.8074 19.4474C19.1176 19.1641 19.3285 18.8039 19.4135 18.412C19.4984 18.0201 19.4535 17.6142 19.2845 17.2454C19.1156 16.8767 18.83 16.5616 18.464 16.3399Z" fill="white"/>
<path d="M25.2749 21.5885H21.5749L21.5621 32.8595H25.4029V27.2937C25.4029 25.8296 25.7102 24.412 27.7074 24.412C29.7046 24.412 29.7046 26.0969 29.7046 27.3983V32.8363H33.5455V26.6662C33.5455 23.6335 32.7645 21.3096 28.9237 21.3096C28.1917 21.2836 27.4656 21.4385 26.823 21.7577C26.1803 22.077 25.6453 22.5486 25.2749 23.1223V21.5885Z" fill="white"/>
</svg>
