<svg width="1440" height="1060" viewBox="0 0 1440 1060" fill="none" xmlns="http://www.w3.org/2000/svg">
<path d="M0 0H1440V1060H0V0Z" fill="#EAFBFF"/>
<circle opacity="0.7" cx="215.5" cy="97.5" r="17.5" fill="#43808C"/>
<path opacity="0.7" d="M1077 221.5C1077 223.798 1076.55 226.074 1075.67 228.197C1074.79 230.32 1073.5 232.249 1071.87 233.874C1070.25 235.499 1068.32 236.788 1066.2 237.668C1064.07 238.547 1061.8 239 1059.5 239V221.5H1077Z" fill="#74DCDF"/>
<circle opacity="0.5" cx="1224.5" cy="665.5" r="17.5" fill="#FFDC8F"/>
<path opacity="0.5" d="M358 935.5C358 940.141 356.156 944.592 352.874 947.874C349.592 951.156 345.141 953 340.5 953C335.859 953 331.408 951.156 328.126 947.874C324.844 944.592 323 940.141 323 935.5L340.5 935.5H358Z" fill="#FFDC8F"/>
</svg>
