<svg width="1440" height="803" viewBox="0 0 1440 803" fill="none" xmlns="http://www.w3.org/2000/svg">
<rect width="1440" height="803" fill="white"/>
<path d="M1121.41 403.5L1122.26 404.04L1121.41 403.5ZM1118.41 572L1129.35 568.299L1120.68 560.677L1118.41 572ZM1218.91 341C1218.91 391.742 1187.27 418.525 1159.31 426.98C1145.28 431.225 1132.36 430.798 1124.84 426.678C1121.12 424.638 1118.78 421.731 1118.16 418.06C1117.54 414.355 1118.65 409.671 1122.26 404.04L1120.57 402.96C1116.81 408.829 1115.46 414.02 1116.19 418.391C1116.93 422.796 1119.75 426.167 1123.88 428.432C1132.07 432.92 1145.61 433.213 1159.89 428.895C1188.56 420.225 1220.91 392.758 1220.91 341H1218.91ZM1122.26 404.04C1129.54 392.688 1140.99 387.973 1152.17 389.44C1163.36 390.908 1174.38 398.593 1180.65 412.282C1193.2 439.668 1186.78 491.347 1123.59 564.593L1125.11 565.899C1188.44 492.493 1195.53 439.949 1182.47 411.449C1175.94 397.197 1164.37 389.023 1152.43 387.457C1140.48 385.888 1128.27 390.961 1120.57 402.96L1122.26 404.04Z" fill="#74DCDF"/>
<path d="M228.968 83.7229C138.467 48.7231 320.968 273.223 228.968 226.223" stroke="#74DCDF" stroke-width="2"/>
<path d="M233 384.5C233 382.202 232.547 379.926 231.668 377.803C230.788 375.68 229.499 373.751 227.874 372.126C226.249 370.501 224.32 369.212 222.197 368.332C220.074 367.453 217.798 367 215.5 367V384.5H233Z" fill="#FCB009"/>
<path d="M1070 62.5C1070 60.2019 1069.55 57.9262 1068.67 55.803C1067.79 53.6798 1066.5 51.7507 1064.87 50.1256C1063.25 48.5006 1061.32 47.2116 1059.2 46.3321C1057.07 45.4527 1054.8 45 1052.5 45V62.5H1070Z" fill="#FFDC8F"/>
<path d="M1010 578.5C1010 576.202 1009.55 573.926 1008.67 571.803C1007.79 569.68 1006.5 567.751 1004.87 566.126C1003.25 564.501 1001.32 563.212 999.197 562.332C997.074 561.453 994.798 561 992.5 561V578.5H1010Z" fill="#43808C"/>
<path d="M424 608.5C424 605.039 422.974 601.655 421.051 598.778C419.128 595.9 416.395 593.657 413.197 592.332C409.999 591.008 406.481 590.661 403.086 591.336C399.691 592.011 396.573 593.678 394.126 596.126C391.678 598.573 390.011 601.691 389.336 605.086C388.661 608.481 389.008 611.999 390.332 615.197C391.657 618.395 393.9 621.128 396.778 623.051C399.655 624.974 403.039 626 406.5 626V608.5H424Z" fill="#74DCDF"/>
</svg>
